<svg xmlns="http://www.w3.org/2000/svg" viewBox="0 0 27 18" fill="none">
  <path d="M22.5,14.7 C22.1,15.1 21.3,15.7 19.9,15.7 C19.3,15.7 18.6,15.7 18.3,15.7 C17.9,15.7 14.9,15.7 11.3,15.7 C13.9,13.2 16.1,11.1 16.3,10.9 C16.5,10.7 17,10.2 17.5,9.8 C18.5,8.9 19.3,8.8 20,8.8 C21,8.8 21.8,9.2 22.5,9.8 C23.9,11.1 23.9,13.4 22.5,14.7 M24.2,8.2 C23.2,7.1 21.7,6.4 20.1,6.4 C18.7,6.4 17.5,6.9 16.4,7.7 C16,8.1 15.4,8.5 14.9,9.1 C14.5,9.5 5.9,17.9 5.9,17.9 C6.4,18 7,18 7.5,18 C8,18 18,18 18.4,18 C19.2,18 19.8,18 20.4,17.9 C21.7,17.8 23,17.3 24.1,16.3 C26.4,14.1 26.4,10.4 24.2,8.2 Z" fill="#00A3FF"/>
  <path d="M10.2,7.6 C9.1,6.8 8,6.4 6.7,6.4 C5.1,6.4 3.6,7.1 2.6,8.2 C0.4,10.5 0.4,14.1 2.7,16.4 C3.7,17.3 4.7,17.8 5.9,17.9 L8.2,15.7 C7.8,15.7 7.3,15.7 6.9,15.7 C5.6,15.6 4.8,15.2 4.3,14.7 C2.9,13.3 2.9,11.1 4.2,9.7 C4.9,9 5.7,8.7 6.7,8.7 C7.3,8.7 8.2,8.8 9.1,9.7 C9.5,10.1 10.6,10.9 11,11.3 L11.1,11.3 L12.6,9.8 L12.6,9.7 C11.9,9 10.8,8.1 10.2,7.6" fill="#00C8DC"/>
  <path d="M20.7,5.1 C19.6,2.1 16.7,0 13.4,0 C9.5,0 6.4,2.9 5.8,6.5 C6.1,6.5 6.4,6.4 6.8,6.4 C7.2,6.4 7.7,6.5 8.1,6.5 L8.1,6.5 C8.6,4 10.8,2.2 13.4,2.2 C15.6,2.2 17.5,3.5 18.4,5.4 C18.4,5.4 18.5,5.5 18.5,5.4 C19.2,5.3 20,5.1 20.7,5.1 C20.7,5.2 20.7,5.2 20.7,5.1" fill="#006EFF"/>
</svg>
